<svg id="レイヤー_1" data-name="レイヤー 1" xmlns="http://www.w3.org/2000/svg" viewBox="0 0 55.73 12.13"><defs><style>.cls-1{fill:#FFFFFF;}</style></defs><title>logo</title><path class="cls-1" d="M5.34,2l.52,1A6.62,6.62,0,0,0,4.27,7.72a6.62,6.62,0,0,0,1.59,4.73l-.52,1A7.83,7.83,0,0,1,3.47,8.52,8.78,8.78,0,0,1,5.34,2Z" transform="translate(-3.45 -1.31)"/><path class="cls-1" d="M12.54,9.13l-.66-.7-1,.09Q11,9.64,10,9.64H8.7L8.42,8.8a3.75,3.75,0,0,0,.89,0q.19,0,.14-.19l-2,.14-.23-1,2.2-.09V7.44h.38l.28-.23H7.53V6.36H11l.14-.09,1,.66-.56.52.84-.14v.61a1.2,1.2,0,0,0,.52-.7,5.14,5.14,0,0,0-.7-.66L13,5.28a4.54,4.54,0,0,1,.52.47,1.77,1.77,0,0,0,.09-.7H12.4V4.11H7.06V3H9v-.7h1.59V3h1.92v.66h1.13V2.28h1.5l0,1.36h1.73l0,.7V6.45q0,.89.23.89a1.27,1.27,0,0,0,.38-.56L18.07,8a2.19,2.19,0,0,1-.84,1.27,1.08,1.08,0,0,1-.56.14.68.68,0,0,1-.42-.14,1.74,1.74,0,0,1-.66-1.08l0-.33L14.65,9A2.5,2.5,0,0,0,14,8.38a2.78,2.78,0,0,1-.84,1v.38h3.42v1.31H13.2v.56h4.59v1.27H7V11.66h4.55v-.56H8V9.78h3.47V9.13Zm-.47-3H7.62V4.34h4.45ZM9.17,5.38h1.31V5.09H9.17Zm5.58,1.55q.47.47.75.8A16.49,16.49,0,0,1,15.31,5h-.23A5.14,5.14,0,0,1,14.75,6.92Z" transform="translate(-3.45 -1.31)"/><path class="cls-1" d="M18.9,12.45a6.63,6.63,0,0,0,1.59-4.73A6.63,6.63,0,0,0,18.9,3l.47-1a7.76,7.76,0,0,1,1.88,5q.23,4.17-1.87,6.47Z" transform="translate(-3.45 -1.31)"/><path class="cls-1" d="M24.56,3.88V2.08h9.84l.16-.16L36,3.23a19.85,19.85,0,0,1-3.88,5L30.69,6.73a10.56,10.56,0,0,0,2.57-2.84Zm.11,7.33a7.09,7.09,0,0,0,3-2.79,9.4,9.4,0,0,0,.88-4h2.19a12.32,12.32,0,0,1-1.31,5,9.06,9.06,0,0,1-3.45,3.5Z" transform="translate(-3.45 -1.31)"/><path class="cls-1" d="M38,2.79H47.6l.22-.16,1.37,1.59a50.93,50.93,0,0,1-4.59,5l1.26,1.48L44.21,12a34.66,34.66,0,0,0-4.27-4.37l1.53-1.48q.82.82,1.64,1.59a30.69,30.69,0,0,0,3-3.06H38Z" transform="translate(-3.45 -1.31)"/><path class="cls-1" d="M49.77,10.88a12.63,12.63,0,0,0,5-3.83,14.69,14.69,0,0,0,2.35-5.74l2,.82A18.42,18.42,0,0,1,56.38,8.2a15.6,15.6,0,0,1-5.2,4.43Z" transform="translate(-3.45 -1.31)"/></svg>
